# xmcd
#
# Track frame offsets:
#	150
#	1200
#	16530
#	41945
#	68170
#	89925
#	116740
#	129660
#	157605
#	177370
#
# Disc length: 2616 seconds
#
# Revision: 0
# Processed by: cddbd v1.5.1PL2 Copyright (c) Steve Scherf et al.
# Submitted via: EasyCDDAExtractor 8.0.2.1
#
DISCID=7b0a360a
DTITLE=Dio - Boblingen Sporthalle Stuttgart 29-04-86 Disc 1
DYEAR=1986
DGENRE=Hard Rock
TTITLE0=Intro
TTITLE1=King Of Rock and Roll
TTITLE2=Like The Beat Of A Heart
TTITLE3=Don't Talk To Strangers
TTITLE4=Hungry For Heaven 
TTITLE5=The Last In Line
TTITLE6=Holy Diver
TTITLE7=Drum Solo
TTITLE8=Heaven and Hell
TTITLE9=Guitar Solo
EXTD=
EXTT0=
EXTT1=
EXTT2=
EXTT3=
EXTT4=
EXTT5=
EXTT6=
EXTT7=
EXTT8=
EXTT9=
PLAYORDER=
